<?xml version="1.0" encoding="utf-8"?>
<!-- Generator: Adobe Illustrator 24.0.1, SVG Export Plug-In . SVG Version: 6.00 Build 0)  -->
<svg version="1.1" baseProfile="tiny" id="Layer_1" xmlns="http://www.w3.org/2000/svg" xmlns:xlink="http://www.w3.org/1999/xlink"
	 x="0px" y="0px" viewBox="0 0 256 256" xml:space="preserve">
<g>
	<g>
		<g>
			<path fill="#FFFFFF" d="M198.5,45.8c-4.8-4.2-25.2-17.2-67.8-17.2c0,0-50.6-3.5-74.9,18.8c-13.5,13.5-18,33.4-18.5,57.9
				c-0.5,24.3-3.1,70.9,41.5,83.3c0,0-0.2,34.7-0.2,37.6c0,2.1,0.2,3.7,1.6,4c0.8,0.2,2.1-0.2,3.1-1.3c7.1-7.1,29.9-34.7,29.9-34.7
				c30.7,2.1,55-4,57.7-5.1c6.1-1.8,39.7-4.8,45.3-50.6C222.3,91.3,214.3,59.3,198.5,45.8z"/>
		</g>
	</g>
	<g>
		<path fill="#7360F2" d="M79.3,15.3L43.9,26.2L23.7,56.6l-10.6,49.3l3.2,50.6l16.9,33.1l29.1,18.9l6.4,4.5v27.9
			c-0.5,2.9-0.4,5.9,0.5,8.7c0.6,1,1.5,1.8,2.5,2.5c1,0.6,2.1,1.1,3.2,1.3c0,0,1.9,0.2,10.1-8.2c8.1-8.4,22.6-25.6,22.6-25.6
			l8.5-3.6l77.1-7.4l35.1-23.6l8.6-46.7l5-47.5l-13.6-38.9l-16.9-25.6l-27.8-10.8l-61.1-4.1L79.3,15.3z"/>
	</g>
	<g>
		<path fill="#FFFFFF" d="M222.5,24.9c-6.4-5.8-32.2-24.6-89.7-24.8c0,0-67.8-4.1-100.9,26.2C13.3,44.6,6.9,71.4,6.2,104.7
			S4.7,200.4,65,217.3h0.1v25.8c0,0-0.4,10.4,6.5,12.6c8.4,2.6,13.3-5.4,21.3-13.9c4.4-4.7,10.4-11.6,15-16.9
			c25.7,2.4,51.6,0.5,76.6-5.6c8.4-2.7,55.5-8.7,63.2-71.1C255.4,84,243.6,43.3,222.5,24.9z M229.4,143.6
			c-6.5,52.1-44.7,55.4-51.8,57.6c-21.6,5.2-43.8,7.1-65.9,5.6c0,0-26.1,31.4-34.3,39.6c-0.5,0.5-1.1,1-1.7,1.2
			c-0.7,0.3-1.4,0.4-2.1,0.3c-1.4-0.3-1.8-2-1.8-4.5c0-3.5,0.2-42.9,0.2-42.9l0,0c-51-14.1-48-67.2-47.5-95
			C25.2,77.8,30.4,55,46,39.7c27.9-25.2,85.6-21.5,85.6-21.5c48.7,0.2,72,14.8,77.4,19.7C227,53.3,236.1,89.9,229.4,143.6
			L229.4,143.6z"/>
	</g>
	<g>
		<path fill="#FFFFFF" d="M156.4,106.5c-0.8,0-1.6-0.3-2.2-0.9c-0.6-0.5-1-1.4-1-2.2c-0.5-11-5.8-16.4-16.3-17
			c-0.8-0.1-1.7-0.5-2.2-1.1c-0.5-0.6-0.8-1.5-0.8-2.4c0.1-0.8,0.5-1.7,1.1-2.2c0.6-0.5,1.5-0.8,2.4-0.8c14,0.8,21.8,8.7,22.5,23.1
			c0,0.5-0.1,0.8-0.2,1.2c-0.2,0.4-0.4,0.8-0.6,1.1c-0.3,0.3-0.6,0.5-1,0.8c-0.4,0.2-0.8,0.3-1.2,0.3L156.4,106.5z"/>
	</g>
	<g>
		<path fill="#FFFFFF" d="M173,112.1L173,112.1c-0.5,0-0.9-0.1-1.3-0.2c-0.4-0.2-0.8-0.4-1.1-0.7c-0.3-0.3-0.5-0.7-0.7-1.1
			c-0.2-0.4-0.2-0.8-0.2-1.2c0.3-5-0.4-10-2.1-14.7c-1.7-4.7-4.3-9.1-7.7-12.7c-7.4-7.7-17.7-12.1-28.3-12.3c-0.5,0-0.8-0.2-1.2-0.3
			c-0.4-0.2-0.7-0.5-1-0.8s-0.5-0.7-0.6-1.1c-0.2-0.4-0.2-0.8-0.2-1.2c0-0.5,0.2-0.8,0.3-1.2c0.2-0.4,0.5-0.7,0.8-1
			c0.3-0.3,0.7-0.5,1.1-0.6c0.4-0.2,0.8-0.2,1.2-0.2c12.4,0.3,24.1,5.5,32.7,14.4c3.9,4.3,7,9.4,8.9,14.8c2,5.4,2.8,11.3,2.5,17.1
			c0,0.8-0.4,1.6-1,2.2C174.7,111.8,173.9,112.1,173,112.1L173,112.1z"/>
	</g>
	<g>
		<path fill="#FFFFFF" d="M190.1,118.8c-0.8,0-1.7-0.3-2.3-0.9c-0.6-0.6-0.9-1.5-1-2.3c-0.2-19.9-5.9-35-17.5-46.3
			c-5.8-5.5-12.5-9.9-19.9-12.8c-7.4-2.9-15.3-4.4-23.3-4.2c-0.5,0-0.8-0.1-1.2-0.2c-0.4-0.2-0.8-0.4-1.1-0.7
			c-0.3-0.3-0.5-0.7-0.7-1.1S123,49.4,123,49c0-0.5,0.1-0.8,0.2-1.2s0.4-0.8,0.7-1.1c0.3-0.3,0.7-0.5,1.1-0.7
			c0.4-0.2,0.8-0.2,1.2-0.2l0,0c8.8-0.2,17.5,1.5,25.7,4.7c8.2,3.2,15.7,8.1,21.9,14.2c6.4,6.2,11.4,13.8,14.5,22.2
			c3.4,9.2,5,18.9,5,28.7c0,0.5-0.1,0.8-0.2,1.2c-0.2,0.4-0.4,0.8-0.7,1.1c-0.3,0.3-0.7,0.5-1.1,0.7
			C191.1,118.7,190.6,118.8,190.1,118.8L190.1,118.8z"/>
	</g>
	<g>
		<path fill="#FFFFFF" d="M137.6,146.7c1.3,0.1,2.6-0.1,3.8-0.5c1.2-0.5,2.3-1.2,3.2-2.1l4.8-6c1.7-1.8,3.9-3,6.4-3.3
			c2.5-0.3,4.9,0.2,7.1,1.5c4.1,2.3,8.1,4.8,12,7.6c3.6,2.7,11.1,8.8,11.1,8.8c1.8,1.4,2.9,3.4,3.3,5.6s-0.1,4.5-1.3,6.4v0.1
			c-2.7,4.6-6.1,8.7-10,12.3c-0.1,0-0.1,0.1-0.1,0.1c-2.8,2.6-6.4,4.3-10.1,4.9c-0.5,0.1-1,0.2-1.5,0.1c-1.5,0-2.9-0.2-4.3-0.7
			l-0.1-0.2c-9.7-3.3-19-7.6-27.9-12.9c-8.2-4.5-16-9.7-23.4-15.4c-3.7-2.9-7.2-6-10.5-9.3l-0.4-0.4l-0.4-0.4l-0.4-0.4l-0.4-0.4
			c-3.3-3.3-6.4-6.8-9.4-10.5c-5.8-7.4-11-15.1-15.5-23.3c-5.3-8.7-9.6-18.1-12.9-27.8l-0.2-0.1C60.2,79,60,77.6,60,76.1
			c0-0.5,0-1,0.1-1.5c0.6-3.8,2.3-7.3,4.9-10.1c0-0.1,0.1-0.1,0.1-0.1c3.5-4,7.7-7.3,12.3-10h0.1c1.9-1.2,4.1-1.7,6.4-1.3
			s4.2,1.5,5.7,3.2c0,0,6.2,7.4,8.9,11.1c2.8,3.8,5.3,7.8,7.6,11.9c1.3,2.1,1.8,4.6,1.5,7c-0.3,2.5-1.5,4.7-3.4,6.3L98,97.4
			c-0.9,0.9-1.7,2-2.1,3.2c-0.5,1.2-0.6,2.5-0.5,3.8C95.2,104.5,104.1,138.2,137.6,146.7z"/>
	</g>
</g>
</svg>
